<mxfile host="app.diagrams.net" modified="2023-01-23T04:29:04.072Z" agent="5.0 (Windows NT 10.0; Win64; x64) AppleWebKit/537.36 (KHTML, like Gecko) Chrome/109.0.0.0 Safari/537.36" etag="lQXL_xFrJHZiiUMcbNj1" version="20.8.10" type="github">
  <diagram id="R2lEEEUBdFMjLlhIrx00" name="Page-1">
    <mxGraphModel dx="2119" dy="455" grid="1" gridSize="10" guides="1" tooltips="1" connect="1" arrows="1" fold="1" page="1" pageScale="1" pageWidth="850" pageHeight="1100" math="0" shadow="0" extFonts="Permanent Marker^https://fonts.googleapis.com/css?family=Permanent+Marker">
      <root>
        <mxCell id="0" />
        <mxCell id="1" parent="0" />
        <mxCell id="s-d3TQJozYRdmBQAh-HW-65" value="Trains" style="rhombus;whiteSpace=wrap;html=1;fillOpacity=0;" parent="1" vertex="1">
          <mxGeometry x="402" y="560" width="80" height="80" as="geometry" />
        </mxCell>
        <mxCell id="qZSQInR1mWZaFcF0gbvc-5" style="edgeStyle=orthogonalEdgeStyle;rounded=0;orthogonalLoop=1;jettySize=auto;html=1;fillOpacity=0;endArrow=none;endFill=0;" parent="1" source="qZSQInR1mWZaFcF0gbvc-2" edge="1">
          <mxGeometry relative="1" as="geometry">
            <mxPoint x="213" y="90" as="targetPoint" />
          </mxGeometry>
        </mxCell>
        <mxCell id="qZSQInR1mWZaFcF0gbvc-8" style="edgeStyle=orthogonalEdgeStyle;rounded=0;orthogonalLoop=1;jettySize=auto;html=1;exitX=1;exitY=0.5;exitDx=0;exitDy=0;entryX=0.558;entryY=1.025;entryDx=0;entryDy=0;entryPerimeter=0;fillOpacity=0;endArrow=none;endFill=0;" parent="1" source="qZSQInR1mWZaFcF0gbvc-2" edge="1">
          <mxGeometry relative="1" as="geometry">
            <mxPoint x="489.96000000000004" y="91.99999999999989" as="targetPoint" />
          </mxGeometry>
        </mxCell>
        <mxCell id="qZSQInR1mWZaFcF0gbvc-10" style="edgeStyle=orthogonalEdgeStyle;rounded=0;orthogonalLoop=1;jettySize=auto;html=1;exitX=0.5;exitY=1;exitDx=0;exitDy=0;fillOpacity=0;endArrow=none;endFill=0;" parent="1" source="qZSQInR1mWZaFcF0gbvc-2" target="qZSQInR1mWZaFcF0gbvc-9" edge="1">
          <mxGeometry relative="1" as="geometry">
            <mxPoint x="486" y="200" as="targetPoint" />
          </mxGeometry>
        </mxCell>
        <mxCell id="qZSQInR1mWZaFcF0gbvc-2" value="Owner/Admin" style="rounded=0;whiteSpace=wrap;html=1;fillOpacity=0;" parent="1" vertex="1">
          <mxGeometry x="313" y="130" width="120" height="60" as="geometry" />
        </mxCell>
        <mxCell id="qZSQInR1mWZaFcF0gbvc-3" value="Adminpwd" style="ellipse;whiteSpace=wrap;html=1;fillOpacity=0;" parent="1" vertex="1">
          <mxGeometry x="160" y="10" width="120" height="80" as="geometry" />
        </mxCell>
        <mxCell id="qZSQInR1mWZaFcF0gbvc-6" value="adminid" style="ellipse;whiteSpace=wrap;html=1;fillOpacity=0;" parent="1" vertex="1">
          <mxGeometry x="430" y="10" width="120" height="80" as="geometry" />
        </mxCell>
        <mxCell id="qZSQInR1mWZaFcF0gbvc-9" value="Tracks" style="rhombus;whiteSpace=wrap;html=1;fillOpacity=0;" parent="1" vertex="1">
          <mxGeometry x="333" y="230" width="80" height="80" as="geometry" />
        </mxCell>
        <mxCell id="nEXemfkZkfeI4yeKxdNY-3" style="edgeStyle=orthogonalEdgeStyle;rounded=0;orthogonalLoop=1;jettySize=auto;html=1;exitX=0.5;exitY=1;exitDx=0;exitDy=0;entryX=0.5;entryY=0;entryDx=0;entryDy=0;endArrow=none;endFill=0;" parent="1" source="qZSQInR1mWZaFcF0gbvc-12" target="nEXemfkZkfeI4yeKxdNY-2" edge="1">
          <mxGeometry relative="1" as="geometry" />
        </mxCell>
        <mxCell id="qZSQInR1mWZaFcF0gbvc-12" value="Doctor" style="rounded=0;whiteSpace=wrap;html=1;fillOpacity=0;" parent="1" vertex="1">
          <mxGeometry x="313" y="330" width="120" height="60" as="geometry" />
        </mxCell>
        <mxCell id="qZSQInR1mWZaFcF0gbvc-18" value="" style="endArrow=none;html=1;rounded=0;exitX=0.5;exitY=0;exitDx=0;exitDy=0;entryX=0.5;entryY=1;entryDx=0;entryDy=0;fillOpacity=0;" parent="1" source="qZSQInR1mWZaFcF0gbvc-12" target="qZSQInR1mWZaFcF0gbvc-9" edge="1">
          <mxGeometry width="50" height="50" relative="1" as="geometry">
            <mxPoint x="616" y="270" as="sourcePoint" />
            <mxPoint x="666" y="220" as="targetPoint" />
          </mxGeometry>
        </mxCell>
        <mxCell id="qZSQInR1mWZaFcF0gbvc-19" value="" style="endArrow=none;html=1;rounded=0;exitX=1;exitY=0.5;exitDx=0;exitDy=0;fillOpacity=0;entryX=0;entryY=0.5;entryDx=0;entryDy=0;" parent="1" source="qZSQInR1mWZaFcF0gbvc-12" target="qZSQInR1mWZaFcF0gbvc-22" edge="1">
          <mxGeometry width="50" height="50" relative="1" as="geometry">
            <mxPoint x="616" y="390" as="sourcePoint" />
            <mxPoint x="533" y="280" as="targetPoint" />
          </mxGeometry>
        </mxCell>
        <mxCell id="qZSQInR1mWZaFcF0gbvc-20" value="" style="endArrow=none;html=1;rounded=0;exitX=1;exitY=0.5;exitDx=0;exitDy=0;entryX=0;entryY=0.5;entryDx=0;entryDy=0;fillOpacity=0;" parent="1" source="qZSQInR1mWZaFcF0gbvc-12" target="qZSQInR1mWZaFcF0gbvc-23" edge="1">
          <mxGeometry width="50" height="50" relative="1" as="geometry">
            <mxPoint x="556" y="420" as="sourcePoint" />
            <mxPoint x="533" y="400" as="targetPoint" />
          </mxGeometry>
        </mxCell>
        <mxCell id="qZSQInR1mWZaFcF0gbvc-21" value="" style="endArrow=none;html=1;rounded=0;exitX=1;exitY=0.5;exitDx=0;exitDy=0;entryX=0;entryY=0.5;entryDx=0;entryDy=0;fillOpacity=0;" parent="1" source="qZSQInR1mWZaFcF0gbvc-12" target="qZSQInR1mWZaFcF0gbvc-24" edge="1">
          <mxGeometry width="50" height="50" relative="1" as="geometry">
            <mxPoint x="556" y="420" as="sourcePoint" />
            <mxPoint x="533" y="510" as="targetPoint" />
          </mxGeometry>
        </mxCell>
        <mxCell id="qZSQInR1mWZaFcF0gbvc-22" value="Name" style="ellipse;whiteSpace=wrap;html=1;fillOpacity=0;" parent="1" vertex="1">
          <mxGeometry x="530" y="240" width="120" height="80" as="geometry" />
        </mxCell>
        <mxCell id="qZSQInR1mWZaFcF0gbvc-23" value="&lt;u&gt;ID&lt;/u&gt;" style="ellipse;whiteSpace=wrap;html=1;fillOpacity=0;" parent="1" vertex="1">
          <mxGeometry x="530" y="360" width="120" height="80" as="geometry" />
        </mxCell>
        <mxCell id="qZSQInR1mWZaFcF0gbvc-24" value="DOJ" style="ellipse;whiteSpace=wrap;html=1;fillOpacity=0;" parent="1" vertex="1">
          <mxGeometry x="530" y="470" width="120" height="80" as="geometry" />
        </mxCell>
        <mxCell id="qZSQInR1mWZaFcF0gbvc-25" value="" style="endArrow=none;html=1;rounded=0;exitX=1;exitY=0.5;exitDx=0;exitDy=0;fillOpacity=0;entryX=0;entryY=0.5;entryDx=0;entryDy=0;" parent="1" source="qZSQInR1mWZaFcF0gbvc-24" target="qZSQInR1mWZaFcF0gbvc-26" edge="1">
          <mxGeometry width="50" height="50" relative="1" as="geometry">
            <mxPoint x="650" y="510" as="sourcePoint" />
            <mxPoint x="800" y="510" as="targetPoint" />
          </mxGeometry>
        </mxCell>
        <mxCell id="qZSQInR1mWZaFcF0gbvc-26" value="&lt;span style=&quot;font-weight: normal;&quot;&gt;Experience&lt;/span&gt;" style="ellipse;whiteSpace=wrap;html=1;startSize=30;fontStyle=1;fillOpacity=0;dashed=1;" parent="1" vertex="1">
          <mxGeometry x="690" y="490" width="110" height="40" as="geometry" />
        </mxCell>
        <mxCell id="qZSQInR1mWZaFcF0gbvc-29" value="" style="endArrow=none;html=1;rounded=0;entryX=0;entryY=0.5;entryDx=0;entryDy=0;fillOpacity=0;" parent="1" source="qZSQInR1mWZaFcF0gbvc-22" target="qZSQInR1mWZaFcF0gbvc-30" edge="1">
          <mxGeometry width="50" height="50" relative="1" as="geometry">
            <mxPoint x="689.9999999999959" y="280" as="sourcePoint" />
            <mxPoint x="840" y="280" as="targetPoint" />
          </mxGeometry>
        </mxCell>
        <mxCell id="qZSQInR1mWZaFcF0gbvc-30" value="&lt;span style=&quot;font-weight: normal;&quot;&gt;dfname&lt;/span&gt;" style="ellipse;whiteSpace=wrap;html=1;startSize=30;fontStyle=1;fillOpacity=0;" parent="1" vertex="1">
          <mxGeometry x="690" y="200" width="110" height="40" as="geometry" />
        </mxCell>
        <mxCell id="qZSQInR1mWZaFcF0gbvc-32" value="" style="endArrow=none;html=1;rounded=0;entryX=0;entryY=0.5;entryDx=0;entryDy=0;fillOpacity=0;" parent="1" source="qZSQInR1mWZaFcF0gbvc-22" target="qZSQInR1mWZaFcF0gbvc-33" edge="1">
          <mxGeometry width="50" height="50" relative="1" as="geometry">
            <mxPoint x="650.0000000000001" y="301.44000000000005" as="sourcePoint" />
            <mxPoint x="828.6800000000001" y="350" as="targetPoint" />
          </mxGeometry>
        </mxCell>
        <mxCell id="qZSQInR1mWZaFcF0gbvc-33" value="&lt;span style=&quot;font-weight: normal;&quot;&gt;dmname&lt;/span&gt;" style="ellipse;whiteSpace=wrap;html=1;startSize=30;fontStyle=1;fillOpacity=0;" parent="1" vertex="1">
          <mxGeometry x="690" y="264.45" width="110" height="40" as="geometry" />
        </mxCell>
        <mxCell id="qZSQInR1mWZaFcF0gbvc-36" value="" style="endArrow=none;html=1;rounded=0;entryX=0;entryY=0.5;entryDx=0;entryDy=0;exitX=0.933;exitY=0.79;exitDx=0;exitDy=0;exitPerimeter=0;fillOpacity=0;" parent="1" target="qZSQInR1mWZaFcF0gbvc-37" edge="1">
          <mxGeometry width="50" height="50" relative="1" as="geometry">
            <mxPoint x="632.6800000000001" y="308.90000000000003" as="sourcePoint" />
            <mxPoint x="828.6800000000001" y="411.1" as="targetPoint" />
          </mxGeometry>
        </mxCell>
        <mxCell id="qZSQInR1mWZaFcF0gbvc-37" value="&lt;span style=&quot;font-weight: normal;&quot;&gt;Dlname&lt;/span&gt;" style="ellipse;whiteSpace=wrap;html=1;startSize=30;fontStyle=1;fillOpacity=0;" parent="1" vertex="1">
          <mxGeometry x="690" y="325.55" width="110" height="40" as="geometry" />
        </mxCell>
        <mxCell id="qZSQInR1mWZaFcF0gbvc-65" style="edgeStyle=orthogonalEdgeStyle;rounded=0;orthogonalLoop=1;jettySize=auto;html=1;exitX=0;exitY=0.5;exitDx=0;exitDy=0;entryX=0.5;entryY=0;entryDx=0;entryDy=0;fillOpacity=0;endArrow=none;endFill=0;startArrow=none;startFill=0;" parent="1" source="qZSQInR1mWZaFcF0gbvc-39" target="qZSQInR1mWZaFcF0gbvc-64" edge="1">
          <mxGeometry relative="1" as="geometry" />
        </mxCell>
        <mxCell id="qZSQInR1mWZaFcF0gbvc-39" value="Nurses" style="rounded=0;whiteSpace=wrap;html=1;fillOpacity=0;" parent="1" vertex="1">
          <mxGeometry x="290" y="710" width="120" height="60" as="geometry" />
        </mxCell>
        <mxCell id="qZSQInR1mWZaFcF0gbvc-61" value="" style="endArrow=none;html=1;rounded=0;exitX=0.5;exitY=0;exitDx=0;exitDy=0;entryX=0.5;entryY=1;entryDx=0;entryDy=0;fillOpacity=0;" parent="1" source="qZSQInR1mWZaFcF0gbvc-39" target="s-d3TQJozYRdmBQAh-HW-65" edge="1">
          <mxGeometry width="50" height="50" relative="1" as="geometry">
            <mxPoint x="543" y="640" as="sourcePoint" />
            <mxPoint x="593" y="590" as="targetPoint" />
            <Array as="points">
              <mxPoint x="350" y="640" />
            </Array>
          </mxGeometry>
        </mxCell>
        <mxCell id="qZSQInR1mWZaFcF0gbvc-64" value="Diagnoses" style="rhombus;whiteSpace=wrap;html=1;fillOpacity=0;" parent="1" vertex="1">
          <mxGeometry x="123" y="640" width="80" height="80" as="geometry" />
        </mxCell>
        <mxCell id="qZSQInR1mWZaFcF0gbvc-67" value="" style="endArrow=none;html=1;rounded=0;entryX=0.5;entryY=1;entryDx=0;entryDy=0;fillOpacity=0;exitX=0.5;exitY=0;exitDx=0;exitDy=0;endFill=0;startArrow=none;startFill=0;" parent="1" source="qZSQInR1mWZaFcF0gbvc-68" target="qZSQInR1mWZaFcF0gbvc-64" edge="1">
          <mxGeometry width="50" height="50" relative="1" as="geometry">
            <mxPoint x="163" y="900" as="sourcePoint" />
            <mxPoint x="193" y="840" as="targetPoint" />
          </mxGeometry>
        </mxCell>
        <mxCell id="qZSQInR1mWZaFcF0gbvc-68" value="Patient" style="rounded=0;whiteSpace=wrap;html=1;fillOpacity=0;" parent="1" vertex="1">
          <mxGeometry x="103" y="824" width="120" height="60" as="geometry" />
        </mxCell>
        <mxCell id="qZSQInR1mWZaFcF0gbvc-69" value="" style="endArrow=none;html=1;rounded=0;entryX=0.5;entryY=1;entryDx=0;entryDy=0;exitX=0.631;exitY=0;exitDx=0;exitDy=0;exitPerimeter=0;fillOpacity=0;" parent="1" target="qZSQInR1mWZaFcF0gbvc-68" edge="1">
          <mxGeometry width="50" height="50" relative="1" as="geometry">
            <mxPoint x="115.72000000000003" y="946.4999999999998" as="sourcePoint" />
            <mxPoint x="173" y="884" as="targetPoint" />
          </mxGeometry>
        </mxCell>
        <mxCell id="qZSQInR1mWZaFcF0gbvc-70" value="" style="endArrow=none;html=1;rounded=0;entryX=0.5;entryY=1;entryDx=0;entryDy=0;exitX=0.5;exitY=0;exitDx=0;exitDy=0;fillOpacity=0;" parent="1" source="qZSQInR1mWZaFcF0gbvc-79" target="qZSQInR1mWZaFcF0gbvc-68" edge="1">
          <mxGeometry width="50" height="50" relative="1" as="geometry">
            <mxPoint x="93" y="934" as="sourcePoint" />
            <mxPoint x="173" y="894.0000000000002" as="targetPoint" />
          </mxGeometry>
        </mxCell>
        <mxCell id="qZSQInR1mWZaFcF0gbvc-71" value="" style="endArrow=none;html=1;rounded=0;entryX=0.5;entryY=1;entryDx=0;entryDy=0;exitX=0.424;exitY=0.017;exitDx=0;exitDy=0;exitPerimeter=0;fillOpacity=0;" parent="1" source="qZSQInR1mWZaFcF0gbvc-80" target="qZSQInR1mWZaFcF0gbvc-68" edge="1">
          <mxGeometry width="50" height="50" relative="1" as="geometry">
            <mxPoint x="223" y="954" as="sourcePoint" />
            <mxPoint x="173" y="894.0000000000002" as="targetPoint" />
          </mxGeometry>
        </mxCell>
        <mxCell id="qZSQInR1mWZaFcF0gbvc-72" value="" style="endArrow=none;html=1;rounded=0;entryX=0.5;entryY=1;entryDx=0;entryDy=0;exitX=0.5;exitY=0;exitDx=0;exitDy=0;fillOpacity=0;" parent="1" source="qZSQInR1mWZaFcF0gbvc-96" target="qZSQInR1mWZaFcF0gbvc-68" edge="1">
          <mxGeometry x="-0.6235" y="-41" width="50" height="50" relative="1" as="geometry">
            <mxPoint x="263.0000000000002" y="949" as="sourcePoint" />
            <mxPoint x="173" y="894.0000000000002" as="targetPoint" />
            <mxPoint y="-1" as="offset" />
          </mxGeometry>
        </mxCell>
        <mxCell id="qZSQInR1mWZaFcF0gbvc-73" value="" style="endArrow=none;html=1;rounded=0;entryX=0.5;entryY=1;entryDx=0;entryDy=0;exitX=0.456;exitY=-0.006;exitDx=0;exitDy=0;fillOpacity=0;exitPerimeter=0;" parent="1" source="qZSQInR1mWZaFcF0gbvc-97" target="qZSQInR1mWZaFcF0gbvc-68" edge="1">
          <mxGeometry x="-0.6235" y="-41" width="50" height="50" relative="1" as="geometry">
            <mxPoint x="343" y="949" as="sourcePoint" />
            <mxPoint x="173" y="894.0000000000002" as="targetPoint" />
            <mxPoint y="-1" as="offset" />
          </mxGeometry>
        </mxCell>
        <mxCell id="qZSQInR1mWZaFcF0gbvc-74" value="pphone" style="ellipse;whiteSpace=wrap;html=1;fillOpacity=0;" parent="1" vertex="1">
          <mxGeometry x="50" y="954" width="100" height="50" as="geometry" />
        </mxCell>
        <mxCell id="qZSQInR1mWZaFcF0gbvc-75" value="" style="ellipse;whiteSpace=wrap;html=1;fillOpacity=0;" parent="1" vertex="1">
          <mxGeometry x="40" y="946.5" width="120" height="65" as="geometry" />
        </mxCell>
        <mxCell id="qZSQInR1mWZaFcF0gbvc-79" value="&lt;u&gt;pId&lt;/u&gt;" style="ellipse;whiteSpace=wrap;html=1;fillOpacity=0;" parent="1" vertex="1">
          <mxGeometry x="170" y="964" width="60" height="40" as="geometry" />
        </mxCell>
        <mxCell id="qZSQInR1mWZaFcF0gbvc-80" value="&lt;span style=&quot;color: rgba(0, 0, 0, 0); font-family: monospace; font-size: 0px; text-align: start;&quot;&gt;%3CmxGraphModel%3E%3Croot%3E%3CmxCell%20id%3D%220%22%2F%3E%3CmxCell%20id%3D%221%22%20parent%3D%220%22%2F%3E%3CmxCell%20id%3D%222%22%20value%3D%22pphone%22%20style%3D%22ellipse%3BwhiteSpace%3Dwrap%3Bhtml%3D1%3B%22%20vertex%3D%221%22%20parent%3D%221%22%3E%3CmxGeometry%20y%3D%221020%22%20width%3D%22100%22%20height%3D%2250%22%20as%3D%22geometry%22%2F%3E%3C%2FmxCell%3E%3C%2Froot%3E%3C%2FmxGraphModel%3E&lt;/span&gt;pBedNo" style="ellipse;whiteSpace=wrap;html=1;fillOpacity=0;" parent="1" vertex="1">
          <mxGeometry x="250" y="959" width="60" height="40" as="geometry" />
        </mxCell>
        <mxCell id="qZSQInR1mWZaFcF0gbvc-85" value="&lt;span style=&quot;font-weight: normal;&quot;&gt;Pfname&lt;/span&gt;" style="ellipse;whiteSpace=wrap;html=1;startSize=30;fontStyle=1;fillOpacity=0;" parent="1" vertex="1">
          <mxGeometry x="435" y="1054" width="110" height="40" as="geometry" />
        </mxCell>
        <mxCell id="qZSQInR1mWZaFcF0gbvc-86" value="&lt;span style=&quot;font-weight: normal;&quot;&gt;Pmname&lt;/span&gt;" style="ellipse;whiteSpace=wrap;html=1;startSize=30;fontStyle=1;fillOpacity=0;" parent="1" vertex="1">
          <mxGeometry x="310" y="1054" width="110" height="40" as="geometry" />
        </mxCell>
        <mxCell id="qZSQInR1mWZaFcF0gbvc-87" value="&lt;span style=&quot;font-weight: normal;&quot;&gt;Plname&lt;/span&gt;" style="ellipse;whiteSpace=wrap;html=1;startSize=30;fontStyle=1;fillOpacity=0;" parent="1" vertex="1">
          <mxGeometry x="175" y="1054" width="110" height="40" as="geometry" />
        </mxCell>
        <mxCell id="qZSQInR1mWZaFcF0gbvc-88" value="" style="endArrow=none;html=1;rounded=0;fontColor=#000000;entryX=0.5;entryY=1;entryDx=0;entryDy=0;exitX=0.5;exitY=0;exitDx=0;exitDy=0;fillOpacity=0;" parent="1" source="qZSQInR1mWZaFcF0gbvc-87" target="qZSQInR1mWZaFcF0gbvc-96" edge="1">
          <mxGeometry width="50" height="50" relative="1" as="geometry">
            <mxPoint x="180" y="1064" as="sourcePoint" />
            <mxPoint x="360.0000000000002" y="999" as="targetPoint" />
          </mxGeometry>
        </mxCell>
        <mxCell id="qZSQInR1mWZaFcF0gbvc-89" value="" style="endArrow=none;html=1;rounded=0;fontColor=#000000;entryX=0.5;entryY=1;entryDx=0;entryDy=0;exitX=0.5;exitY=0;exitDx=0;exitDy=0;fillOpacity=0;" parent="1" source="qZSQInR1mWZaFcF0gbvc-86" target="qZSQInR1mWZaFcF0gbvc-96" edge="1">
          <mxGeometry width="50" height="50" relative="1" as="geometry">
            <mxPoint x="180" y="1064" as="sourcePoint" />
            <mxPoint x="360.0000000000002" y="999" as="targetPoint" />
          </mxGeometry>
        </mxCell>
        <mxCell id="qZSQInR1mWZaFcF0gbvc-90" value="" style="endArrow=none;html=1;rounded=0;fontColor=#000000;exitX=0.5;exitY=0;exitDx=0;exitDy=0;entryX=0.5;entryY=1;entryDx=0;entryDy=0;fillOpacity=0;" parent="1" source="qZSQInR1mWZaFcF0gbvc-85" target="qZSQInR1mWZaFcF0gbvc-96" edge="1">
          <mxGeometry width="50" height="50" relative="1" as="geometry">
            <mxPoint x="374.9999999999998" y="1064" as="sourcePoint" />
            <mxPoint x="360.0000000000002" y="999" as="targetPoint" />
          </mxGeometry>
        </mxCell>
        <mxCell id="qZSQInR1mWZaFcF0gbvc-91" value="" style="endArrow=none;html=1;rounded=0;fontColor=#000000;exitX=1;exitY=0.5;exitDx=0;exitDy=0;entryX=0;entryY=0.5;entryDx=0;entryDy=0;fillOpacity=0;" parent="1" source="qZSQInR1mWZaFcF0gbvc-97" target="qZSQInR1mWZaFcF0gbvc-93" edge="1">
          <mxGeometry width="50" height="50" relative="1" as="geometry">
            <mxPoint x="470.00000000000216" y="979" as="sourcePoint" />
            <mxPoint x="560" y="979" as="targetPoint" />
          </mxGeometry>
        </mxCell>
        <mxCell id="qZSQInR1mWZaFcF0gbvc-93" value="severity" style="ellipse;whiteSpace=wrap;html=1;fontColor=default;dashed=1;fillOpacity=0;startSize=30;fontStyle=0;" parent="1" vertex="1">
          <mxGeometry x="560" y="990" width="60" height="40" as="geometry" />
        </mxCell>
        <mxCell id="qZSQInR1mWZaFcF0gbvc-96" value="pName" style="ellipse;whiteSpace=wrap;html=1;fontColor=default;fillOpacity=0;" parent="1" vertex="1">
          <mxGeometry x="327" y="959" width="60" height="40" as="geometry" />
        </mxCell>
        <mxCell id="qZSQInR1mWZaFcF0gbvc-97" value="pDisease" style="ellipse;whiteSpace=wrap;html=1;fontColor=default;fillOpacity=0;" parent="1" vertex="1">
          <mxGeometry x="412" y="959" width="60" height="40" as="geometry" />
        </mxCell>
        <mxCell id="qZSQInR1mWZaFcF0gbvc-100" value="1" style="text;html=1;strokeColor=none;fillColor=none;align=center;verticalAlign=middle;whiteSpace=wrap;rounded=0;fontSize=16;fillOpacity=0;" parent="1" vertex="1">
          <mxGeometry x="358" y="190" width="60" height="30" as="geometry" />
        </mxCell>
        <mxCell id="qZSQInR1mWZaFcF0gbvc-103" value="m" style="text;html=1;strokeColor=none;fillColor=none;align=center;verticalAlign=middle;whiteSpace=wrap;rounded=0;fontSize=16;fillOpacity=0;" parent="1" vertex="1">
          <mxGeometry x="363" y="300" width="60" height="30" as="geometry" />
        </mxCell>
        <mxCell id="qZSQInR1mWZaFcF0gbvc-104" value="m" style="text;html=1;strokeColor=none;fillColor=none;align=center;verticalAlign=middle;whiteSpace=wrap;rounded=0;fontSize=16;fillOpacity=0;" parent="1" vertex="1">
          <mxGeometry x="350" y="680" width="60" height="30" as="geometry" />
        </mxCell>
        <mxCell id="qZSQInR1mWZaFcF0gbvc-105" value="1" style="text;html=1;strokeColor=none;fillColor=none;align=center;verticalAlign=middle;whiteSpace=wrap;rounded=0;fontSize=16;fillOpacity=0;" parent="1" vertex="1">
          <mxGeometry x="260" y="325.55" width="60" height="30" as="geometry" />
        </mxCell>
        <mxCell id="qZSQInR1mWZaFcF0gbvc-106" value="1" style="text;html=1;strokeColor=none;fillColor=none;align=center;verticalAlign=middle;whiteSpace=wrap;rounded=0;fontSize=16;fillOpacity=0;" parent="1" vertex="1">
          <mxGeometry x="143" y="794" width="60" height="30" as="geometry" />
        </mxCell>
        <mxCell id="qZSQInR1mWZaFcF0gbvc-108" value="m" style="text;html=1;strokeColor=none;fillColor=none;align=center;verticalAlign=middle;whiteSpace=wrap;rounded=0;fontSize=16;fillOpacity=0;" parent="1" vertex="1">
          <mxGeometry x="298" y="390" width="60" height="30" as="geometry" />
        </mxCell>
        <mxCell id="qZSQInR1mWZaFcF0gbvc-110" value="m" style="text;html=1;strokeColor=none;fillColor=none;align=center;verticalAlign=middle;whiteSpace=wrap;rounded=0;fontSize=16;fillOpacity=0;" parent="1" vertex="1">
          <mxGeometry x="250" y="735" width="60" height="30" as="geometry" />
        </mxCell>
        <mxCell id="qZSQInR1mWZaFcF0gbvc-117" style="edgeStyle=orthogonalEdgeStyle;rounded=0;orthogonalLoop=1;jettySize=auto;html=1;fillOpacity=0;endArrow=none;endFill=0;exitX=0;exitY=0.5;exitDx=0;exitDy=0;entryX=0.5;entryY=0;entryDx=0;entryDy=0;startArrow=none;startFill=0;" parent="1" source="qZSQInR1mWZaFcF0gbvc-12" target="qZSQInR1mWZaFcF0gbvc-64" edge="1">
          <mxGeometry relative="1" as="geometry">
            <mxPoint x="310" y="360.0000000000001" as="sourcePoint" />
            <mxPoint x="170" y="630" as="targetPoint" />
          </mxGeometry>
        </mxCell>
        <mxCell id="nEXemfkZkfeI4yeKxdNY-4" style="edgeStyle=orthogonalEdgeStyle;rounded=0;orthogonalLoop=1;jettySize=auto;html=1;exitX=1;exitY=0.5;exitDx=0;exitDy=0;entryX=0.5;entryY=0;entryDx=0;entryDy=0;endArrow=none;endFill=0;" parent="1" source="nEXemfkZkfeI4yeKxdNY-2" target="s-d3TQJozYRdmBQAh-HW-65" edge="1">
          <mxGeometry relative="1" as="geometry" />
        </mxCell>
        <mxCell id="nEXemfkZkfeI4yeKxdNY-2" value="d" style="ellipse;whiteSpace=wrap;html=1;aspect=fixed;" parent="1" vertex="1">
          <mxGeometry x="358" y="480" width="30" height="30" as="geometry" />
        </mxCell>
        <mxCell id="Y99NqYR2-ee6TdtlUfzP-1" value="" style="shape=image;verticalLabelPosition=bottom;labelBackgroundColor=default;verticalAlign=top;aspect=fixed;imageAspect=0;image=https://i.imgur.com/KNchmfh.jpg;" vertex="1" parent="1">
          <mxGeometry x="-10" y="1204" width="520" height="352" as="geometry" />
        </mxCell>
        <mxCell id="Y99NqYR2-ee6TdtlUfzP-3" value="PATIENT" style="text;strokeColor=none;fillColor=none;html=1;fontSize=24;fontStyle=1;verticalAlign=middle;align=center;" vertex="1" parent="1">
          <mxGeometry x="590" y="1120" width="100" height="40" as="geometry" />
        </mxCell>
        <mxCell id="Y99NqYR2-ee6TdtlUfzP-4" value="DOCTOR" style="text;strokeColor=none;fillColor=none;html=1;fontSize=24;fontStyle=1;verticalAlign=middle;align=center;" vertex="1" parent="1">
          <mxGeometry x="589" y="1240" width="100" height="40" as="geometry" />
        </mxCell>
        <mxCell id="Y99NqYR2-ee6TdtlUfzP-5" value="Patient" style="text;strokeColor=none;fillColor=none;html=1;fontSize=24;fontStyle=1;verticalAlign=middle;align=center;" vertex="1" parent="1">
          <mxGeometry x="590" y="1060" width="100" height="40" as="geometry" />
        </mxCell>
        <mxCell id="Y99NqYR2-ee6TdtlUfzP-8" value="WARD" style="text;strokeColor=none;fillColor=none;html=1;fontSize=24;fontStyle=1;verticalAlign=middle;align=center;" vertex="1" parent="1">
          <mxGeometry x="589" y="1360" width="100" height="40" as="geometry" />
        </mxCell>
        <mxCell id="Y99NqYR2-ee6TdtlUfzP-9" value="ACOUNTANT" style="text;strokeColor=none;fillColor=none;html=1;fontSize=24;fontStyle=1;verticalAlign=middle;align=center;" vertex="1" parent="1">
          <mxGeometry x="589" y="1500" width="100" height="40" as="geometry" />
        </mxCell>
        <mxCell id="Y99NqYR2-ee6TdtlUfzP-44" value="" style="group" vertex="1" connectable="0" parent="1">
          <mxGeometry x="580" y="1150" width="600" height="60" as="geometry" />
        </mxCell>
        <mxCell id="Y99NqYR2-ee6TdtlUfzP-37" value="NAME" style="rounded=0;whiteSpace=wrap;html=1;" vertex="1" parent="Y99NqYR2-ee6TdtlUfzP-44">
          <mxGeometry width="120" height="60" as="geometry" />
        </mxCell>
        <mxCell id="Y99NqYR2-ee6TdtlUfzP-38" value="ID" style="rounded=0;whiteSpace=wrap;html=1;" vertex="1" parent="Y99NqYR2-ee6TdtlUfzP-44">
          <mxGeometry x="120" width="120" height="60" as="geometry" />
        </mxCell>
        <mxCell id="Y99NqYR2-ee6TdtlUfzP-39" value="ADDRESS" style="rounded=0;whiteSpace=wrap;html=1;" vertex="1" parent="Y99NqYR2-ee6TdtlUfzP-44">
          <mxGeometry x="240" width="120" height="60" as="geometry" />
        </mxCell>
        <mxCell id="Y99NqYR2-ee6TdtlUfzP-40" value="DATE_ADMITTED" style="rounded=0;whiteSpace=wrap;html=1;" vertex="1" parent="Y99NqYR2-ee6TdtlUfzP-44">
          <mxGeometry x="360" width="120" height="60" as="geometry" />
        </mxCell>
        <mxCell id="Y99NqYR2-ee6TdtlUfzP-41" value="DATE_DISCHARGE" style="rounded=0;whiteSpace=wrap;html=1;" vertex="1" parent="Y99NqYR2-ee6TdtlUfzP-44">
          <mxGeometry x="480" width="120" height="60" as="geometry" />
        </mxCell>
        <mxCell id="Y99NqYR2-ee6TdtlUfzP-53" value="" style="group" vertex="1" connectable="0" parent="1">
          <mxGeometry x="580" y="1280" width="600" height="60" as="geometry" />
        </mxCell>
        <mxCell id="Y99NqYR2-ee6TdtlUfzP-46" value="DOC_ID" style="rounded=0;whiteSpace=wrap;html=1;" vertex="1" parent="Y99NqYR2-ee6TdtlUfzP-53">
          <mxGeometry width="200" height="60" as="geometry" />
        </mxCell>
        <mxCell id="Y99NqYR2-ee6TdtlUfzP-47" value="DOC_NAME" style="rounded=0;whiteSpace=wrap;html=1;" vertex="1" parent="Y99NqYR2-ee6TdtlUfzP-53">
          <mxGeometry x="200" width="200" height="60" as="geometry" />
        </mxCell>
        <mxCell id="Y99NqYR2-ee6TdtlUfzP-48" value="QUALIFICATION" style="rounded=0;whiteSpace=wrap;html=1;" vertex="1" parent="Y99NqYR2-ee6TdtlUfzP-53">
          <mxGeometry x="400" width="200" height="60" as="geometry" />
        </mxCell>
        <mxCell id="Y99NqYR2-ee6TdtlUfzP-59" value="" style="group" vertex="1" connectable="0" parent="1">
          <mxGeometry x="580" y="1400" width="600" height="60" as="geometry" />
        </mxCell>
        <mxCell id="Y99NqYR2-ee6TdtlUfzP-55" value="WARD_ID" style="rounded=0;whiteSpace=wrap;html=1;" vertex="1" parent="Y99NqYR2-ee6TdtlUfzP-59">
          <mxGeometry width="300" height="60" as="geometry" />
        </mxCell>
        <mxCell id="Y99NqYR2-ee6TdtlUfzP-56" value="WARD_TYPE" style="rounded=0;whiteSpace=wrap;html=1;" vertex="1" parent="Y99NqYR2-ee6TdtlUfzP-59">
          <mxGeometry x="300" width="300" height="60" as="geometry" />
        </mxCell>
        <mxCell id="Y99NqYR2-ee6TdtlUfzP-60" value="" style="group" vertex="1" connectable="0" parent="1">
          <mxGeometry x="580" y="1550" width="600" height="60" as="geometry" />
        </mxCell>
        <mxCell id="Y99NqYR2-ee6TdtlUfzP-61" value="WARD_ID" style="rounded=0;whiteSpace=wrap;html=1;" vertex="1" parent="Y99NqYR2-ee6TdtlUfzP-60">
          <mxGeometry width="300" height="60" as="geometry" />
        </mxCell>
        <mxCell id="Y99NqYR2-ee6TdtlUfzP-62" value="WARD_TYPE" style="rounded=0;whiteSpace=wrap;html=1;" vertex="1" parent="Y99NqYR2-ee6TdtlUfzP-60">
          <mxGeometry x="300" width="300" height="60" as="geometry" />
        </mxCell>
      </root>
    </mxGraphModel>
  </diagram>
</mxfile>
